<svg xmlns="http://www.w3.org/2000/svg" preserveAspectRatio="xMidYMid meet" data-bbox="-0.01 -0.039 497.401 147.141" viewBox="-0.01 -0.039 497.401 147.141" data-type="shape" aria-labelledby="svgcid--osbylc-dni4i3"><title id="svgcid--osbylc-dni4i3"></title><g><path d="M486.975 87.828c-.283 1.417-.78 2.622-1.453 3.684s-1.559 1.914-2.692 2.587c-1.099.638-2.48.992-4.11.992-1.595 0-2.976-.319-4.075-.992a8.295 8.295 0 01-2.728-2.587c-.673-1.062-1.169-2.267-1.488-3.684s-.46-2.835-.46-4.287c0-1.488.141-2.976.425-4.358.283-1.417.78-2.657 1.452-3.72.674-1.099 1.56-1.949 2.693-2.658 1.098-.673 2.48-1.027 4.11-1.027 1.594 0 2.94.354 4.039 1.027s2.02 1.595 2.728 2.693 1.205 2.374 1.524 3.756c.318 1.417.46 2.834.46 4.287s-.142 2.87-.425 4.287zm9.424-11.444c-.673-2.374-1.665-4.429-3.011-6.236-1.382-1.771-3.083-3.224-5.137-4.287s-4.536-1.63-7.405-1.63c-2.268 0-4.323.46-6.2 1.347s-3.437 2.338-4.642 4.287h-.142v-4.642h-9.495v49.142h9.991V97.11h.142a11.95 11.95 0 004.677 4.04c1.913.92 3.968 1.381 6.236 1.381 2.657 0 4.995-.531 7.015-1.559 1.984-1.027 3.649-2.409 4.995-4.145s2.339-3.72 2.976-5.988c.674-2.267.992-4.606.992-7.05 0-2.587-.318-5.067-.992-7.44v.035zm-49.283 11.444c-.283 1.417-.78 2.622-1.452 3.684s-1.56 1.914-2.693 2.587c-1.098.638-2.48.992-4.11.992-1.594 0-2.94-.319-4.074-.992s-2.02-1.524-2.728-2.587c-.674-1.062-1.17-2.267-1.489-3.684s-.46-2.835-.46-4.287c0-1.488.142-2.976.425-4.358.283-1.417.78-2.657 1.453-3.72.673-1.099 1.559-1.949 2.692-2.658 1.099-.673 2.48-1.027 4.11-1.027 1.595 0 2.94.354 4.04 1.027s2.019 1.595 2.727 2.693 1.205 2.374 1.524 3.756c.319 1.417.46 2.834.46 4.287s-.141 2.87-.425 4.287zm6.413-17.68c-1.346-1.771-3.082-3.224-5.137-4.287s-4.535-1.63-7.405-1.63c-2.268 0-4.323.46-6.2 1.347s-3.437 2.338-4.642 4.287h-.141v-4.642h-9.496v49.142h9.992V97.11h.141a11.95 11.95 0 004.677 4.04c1.913.92 3.968 1.381 6.236 1.381 2.692 0 4.995-.531 7.015-1.559 1.984-1.027 3.65-2.409 4.996-4.145s2.338-3.72 3.011-5.988c.638-2.267.992-4.606.992-7.05 0-2.587-.319-5.067-.992-7.44s-1.665-4.43-3.047-6.236v.035zm-65.758 12.046l6.555-18.459h.141l6.342 18.46h-13.038zm1.063-30.86l-19.026 50.276h11.125l3.933-11.196h18.813l3.791 11.196h11.48l-18.814-50.275h-11.338.036zm-19.84 34.332c-.674-1.133-1.524-2.125-2.623-2.905-1.063-.78-2.303-1.382-3.684-1.878a53.557 53.557 0 00-4.252-1.204c-1.417-.32-2.799-.638-4.145-.921s-2.587-.603-3.614-.957c-1.063-.354-1.913-.815-2.551-1.382-.673-.567-.992-1.275-.992-2.196 0-.744.177-1.347.567-1.807s.85-.78 1.381-1.028 1.134-.39 1.807-.46 1.276-.107 1.843-.107c1.771 0 3.33.355 4.641 1.028s2.055 1.984 2.161 3.897h9.496c-.178-2.267-.78-4.11-1.737-5.598s-2.16-2.657-3.613-3.543-3.118-1.523-4.96-1.913-3.756-.567-5.74-.567-3.898.177-5.775.531-3.579.957-5.067 1.843c-1.523.886-2.728 2.055-3.614 3.543-.92 1.488-1.381 3.437-1.381 5.775 0 1.594.318 2.94.992 4.039.637 1.098 1.523 2.02 2.586 2.763 1.098.71 2.303 1.311 3.685 1.772s2.799.85 4.251 1.17c3.579.743 6.342 1.487 8.362 2.231 1.984.744 2.976 1.878 2.976 3.366 0 .886-.213 1.63-.638 2.232s-.956 1.063-1.594 1.417-1.347.603-2.126.78-1.523.248-2.232.248c-.992 0-1.949-.106-2.834-.354-.922-.248-1.737-.603-2.445-1.099s-1.276-1.134-1.736-1.913-.673-1.7-.673-2.764h-9.496c.107 2.445.638 4.465 1.666 6.094.992 1.63 2.303 2.906 3.861 3.898s3.366 1.7 5.386 2.126 4.074.637 6.2.637c2.055 0 4.11-.212 6.094-.602s3.756-1.098 5.315-2.09 2.798-2.303 3.755-3.898c.957-1.63 1.453-3.614 1.453-6.023 0-1.7-.32-3.118-.992-4.251l.035.07zm-41.348-31.355h-9.99v10.912h-6.06v6.697h6.059v21.47c0 1.843.319 3.295.921 4.429s1.453 1.984 2.516 2.622c1.063.602 2.267 1.027 3.65 1.24s2.869.319 4.392.319c.992 0 1.984-.036 3.047-.071a20.71 20.71 0 002.8-.284v-7.759c-.461.107-.957.177-1.489.213s-1.063.07-1.63.07c-1.7 0-2.798-.283-3.365-.85s-.85-1.7-.85-3.365V71.92h7.333v-6.697h-7.334V54.311zm-28.663 33.233c0 .567-.07 1.311-.177 2.268a6.97 6.97 0 01-.956 2.763c-.532.922-1.311 1.701-2.41 2.374-1.062.673-2.621.992-4.57.992-.78 0-1.559-.07-2.338-.212-.744-.142-1.418-.39-1.984-.744s-.993-.815-1.347-1.453c-.319-.602-.496-1.346-.496-2.268 0-.956.177-1.7.496-2.338.319-.602.78-1.098 1.311-1.523.532-.39 1.17-.71 1.913-.957s1.453-.425 2.232-.567 1.595-.248 2.41-.354 1.559-.213 2.303-.355 1.417-.318 2.055-.531 1.169-.496 1.594-.886v3.72l-.036.071zm9.992 5.988V74.577c0-2.197-.496-3.968-1.488-5.315s-2.268-2.373-3.791-3.117c-1.56-.744-3.26-1.24-5.138-1.524a42.36 42.36 0 00-5.562-.39c-2.02 0-4.04.213-6.023.603s-3.791 1.063-5.386 2.02-2.905 2.196-3.932 3.72c-1.028 1.558-1.63 3.507-1.772 5.845h9.991c.177-1.984.85-3.366 1.984-4.216s2.658-1.275 4.642-1.275c.886 0 1.736.07 2.515.177s1.453.354 2.055.708 1.063.85 1.417 1.488.532 1.488.532 2.587c.035 1.027-.248 1.807-.921 2.374-.673.531-1.56.956-2.693 1.24s-2.41.496-3.862.637-2.94.32-4.429.567-2.976.567-4.464.957-2.799.992-3.933 1.807c-1.169.815-2.09 1.878-2.834 3.189-.744 1.346-1.098 3.046-1.098 5.101 0 1.878.319 3.508.956 4.854a9.203 9.203 0 002.622 3.366c1.134.886 2.445 1.56 3.933 1.984s3.118.638 4.854.638c2.267 0 4.464-.319 6.625-.992s4.04-1.807 5.634-3.437c.035.603.141 1.205.248 1.807.106.567.283 1.17.46 1.736h10.133c-.46-.744-.815-1.878-.992-3.366s-.283-3.082-.283-4.712v-.106zm-41.17-25.155c-.992-1.276-2.338-2.303-4.039-3.012-1.7-.744-3.897-1.098-6.59-1.098-1.878 0-3.791.496-5.775 1.452s-3.578 2.516-4.854 4.606h-.213V51.37h-9.99v50.275h9.99V82.55c0-3.72.603-6.378 1.843-8.008 1.204-1.63 3.189-2.409 5.917-2.409 2.373 0 4.074.744 4.995 2.232s1.417 3.72 1.417 6.732v20.55h9.992V79.253c0-2.268-.213-4.323-.603-6.165s-1.098-3.437-2.09-4.712zM214.979 86.02h-.142l-8.574-34.65h-10.345l-8.716 34.225h-.142l-7.972-34.226h-11.054l13.322 50.275h11.196l8.361-34.225h.142l8.503 34.225h10.983l6.024-22.32 7.51-27.955h-10.84l-8.256 34.65z" fill-rule="evenodd" clip-rule="evenodd"></path><path d="M74.322 131.903c-12.224 0-23.632-3.685-33.163-9.956l-23.17 7.405 7.51-22.392C18.272 97.04 14.02 84.816 14.02 71.636c0-33.233 27.033-60.266 60.266-60.266s60.267 27.033 60.267 60.266-27.033 60.267-60.267 60.267h.036zm0-131.942c-39.575 0-71.675 32.1-71.675 71.675 0 13.534 3.756 26.218 10.275 37.025L-.01 147.102l39.681-12.72a71.497 71.497 0 0034.65 8.93c39.576 0 71.676-32.1 71.676-71.676S113.897-.039 74.322-.039z" fill-rule="evenodd" clip-rule="evenodd"></path><path d="M57.493 41.981c-1.17-2.799-2.055-2.905-3.827-2.976a33.626 33.626 0 00-2.02-.07c-2.302 0-4.712.672-6.164 2.16-1.772 1.807-6.165 6.024-6.165 14.669s6.307 17.006 7.157 18.175c.886 1.17 12.294 19.168 30.009 26.502 13.853 5.74 17.963 5.208 21.116 4.535 4.606-.992 10.381-4.393 11.834-8.503s1.453-7.618 1.027-8.362-1.594-1.169-3.365-2.055-10.381-5.137-12.011-5.704c-1.595-.602-3.118-.39-4.323 1.31-1.7 2.375-3.366 4.784-4.712 6.237-1.063 1.133-2.799 1.275-4.251.673-1.95-.815-7.405-2.728-14.137-8.716-5.208-4.641-8.751-10.416-9.779-12.153-1.027-1.771-.106-2.799.709-3.755.886-1.098 1.736-1.878 2.622-2.905s1.381-1.56 1.948-2.764c.603-1.17.178-2.374-.248-3.26s-3.968-9.53-5.42-13.038z" fill-rule="evenodd" clip-rule="evenodd"></path></g></svg>